<svg width="11" height="11" viewBox="0 0 11 11" fill="none" xmlns="http://www.w3.org/2000/svg">
<path fill-rule="evenodd" clip-rule="evenodd" d="M8.09194 10.9984C7.29859 10.9692 5.05025 10.6586 2.69556 8.30493C0.341435 5.95074 0.0312609 3.7034 0.00151065 2.90967C-0.0425638 1.70007 0.884103 0.525175 1.95456 0.0663428C2.08347 0.0106919 2.22463 -0.0104961 2.3642 0.004858C2.50376 0.0202121 2.63694 0.0715806 2.75066 0.153923C3.63215 0.796177 4.24038 1.76782 4.76266 2.53181C4.87757 2.69966 4.92671 2.90391 4.9007 3.10565C4.87469 3.30738 4.77535 3.4925 4.62162 3.62573L3.54675 4.42387C3.49482 4.46136 3.45827 4.51642 3.44388 4.57883C3.42949 4.64123 3.43825 4.70673 3.46852 4.76317C3.71203 5.20548 4.14506 5.86426 4.6409 6.35999C5.13729 6.85573 5.82706 7.31732 6.30031 7.58832C6.35965 7.62162 6.42949 7.63093 6.49548 7.61433C6.56147 7.59774 6.61859 7.5565 6.65511 7.49909L7.35479 6.43435C7.48343 6.26352 7.67319 6.14907 7.88433 6.11498C8.09548 6.08089 8.31163 6.12981 8.48751 6.25148C9.26267 6.78798 10.1673 7.38562 10.8295 8.23333C10.9186 8.34785 10.9752 8.48417 10.9935 8.62807C11.0118 8.77196 10.9912 8.91813 10.9336 9.05129C10.4725 10.127 9.30564 11.0431 8.09194 10.9984Z" fill="white"/>
</svg>
