<svg width="25" height="25" viewBox="0 0 25 25" fill="none" xmlns="http://www.w3.org/2000/svg">
    <circle cx="12.5" cy="12.5" r="12.5" fill="#EF733E"/>
    <path d="M19.7914 6.14653C19.7084 6.07486 19.6074 6.02719 19.4993 6.00866C19.3912 5.99014 19.2801 6.00145 19.178 6.04139L5.60712 11.3523C5.41479 11.4271 5.25196 11.5623 5.14315 11.7377C5.03433 11.913 4.98542 12.1189 5.00378 12.3245C5.02213 12.53 5.10676 12.724 5.24492 12.8773C5.38309 13.0306 5.56731 13.1349 5.76984 13.1744L9.28611 13.8648V17.7855C9.28542 17.9991 9.34889 18.2079 9.46828 18.385C9.58768 18.562 9.75751 18.6992 9.95575 18.7786C10.1537 18.8594 10.3714 18.8788 10.5805 18.8343C10.7896 18.7897 10.9805 18.6833 11.1283 18.5288L12.8238 16.7703L15.5138 19.1248C15.7078 19.2969 15.9581 19.3922 16.2175 19.3926C16.3312 19.3925 16.4442 19.3747 16.5524 19.3397C16.7291 19.2837 16.8881 19.1822 17.0134 19.0456C17.1388 18.909 17.2262 18.7419 17.2669 18.5609L19.9849 6.73648C20.0092 6.62984 20.0041 6.51859 19.97 6.41466C19.9359 6.31074 19.8742 6.21805 19.7914 6.14653ZM15.6972 8.55722L9.69794 12.8536L6.37654 12.2021L15.6972 8.55722ZM10.3575 17.7855V14.6061L12.0176 16.0619L10.3575 17.7855ZM16.2189 18.3212L10.6823 13.4663L18.651 7.755L16.2189 18.3212Z" fill="white"/>
</svg>
